HIERARCHY
ROOT Hips
{
	OFFSET 0.00000 0.00000 0.00000
	CHANNELS 6 Xposition Yposition Zposition Zrotation Yrotation Xrotation 
	JOINT LHipJoint
	{
		OFFSET 0 0 0
		CHANNELS 3 Zrotation Yrotation Xrotation
		JOINT LeftHip
		{
			OFFSET 1.38615 -1.80049 0.80104
			CHANNELS 3 Zrotation Yrotation Xrotation
			JOINT LeftKnee
			{
				OFFSET 2.50172 -6.87341 0.00000
				CHANNELS 3 Zrotation Yrotation Xrotation
				JOINT LeftAnkle
				{
					OFFSET 2.67523 -7.35014 0.00000
					CHANNELS 3 Zrotation Yrotation Xrotation
					JOINT LeftToe
					{
						OFFSET 0.17446 -0.47932 2.13155
						CHANNELS 3 Zrotation Yrotation Xrotation
						End Site
						{
							OFFSET 0.00000 -0.00000 1.10023
						}
					}
				}
			}
		}
	}
	JOINT RHipJoint
	{
		OFFSET 0 0 0
		CHANNELS 3 Zrotation Yrotation Xrotation
		JOINT RightHip
		{
			OFFSET -1.18047 -1.80049 0.80104
			CHANNELS 3 Zrotation Yrotation Xrotation
			JOINT RightKnee
			{
				OFFSET -2.59789 -7.13765 0.00000
				CHANNELS 3 Zrotation Yrotation Xrotation
				JOINT RightAnkle
				{
					OFFSET -2.62125 -7.20183 0.00000
					CHANNELS 3 Zrotation Yrotation Xrotation
					JOINT RightToe
					{
						OFFSET -0.31287 -0.85960 2.07814
						CHANNELS 3 Zrotation Yrotation Xrotation
						End Site
						{
							OFFSET -0.00000 -0.00000 1.11766
						}
					}
				}
			}
		}
	}
	JOINT lowerback
	{
		OFFSET 0 0 0
		CHANNELS 3 Zrotation Yrotation Xrotation
		JOINT Chest
		{
			OFFSET -0.01587 2.16157 -0.12309
			CHANNELS 3 Zrotation Yrotation Xrotation
			JOINT Chest2
			{
				OFFSET 0.04727 2.16674 -0.03569
				CHANNELS 3 Zrotation Yrotation Xrotation
				JOINT lowerneck
				{
					OFFSET 0 0 0
					CHANNELS 3 Zrotation Yrotation Xrotation
					JOINT Neck
					{
						OFFSET -0.08586 1.60335 0.32783
						CHANNELS 3 Zrotation Yrotation Xrotation
						JOINT Head
						{
							OFFSET 0.07583 1.65857 -0.31618
							CHANNELS 3 Zrotation Yrotation Xrotation
							End Site
							{
								OFFSET 0.03386 1.69434 -0.14584
							}
						}
					}
				}
				JOINT LeftCollar
				{
					OFFSET 0 0 0
					CHANNELS 3 Zrotation Yrotation Xrotation
					JOINT LeftShoulder
					{
						OFFSET 3.17393 1.01901 -0.52897
CHANNELS 3 Zrotation Xrotation Yrotation
						JOINT LeftElbow
						{
OFFSET 0 -5.252870 -0.000000
CHANNELS 3 Zrotation Xrotation Yrotation
							JOINT LeftWrist
							{
OFFSET 0 -3.510140 0.000000
CHANNELS 3 Zrotation Xrotation Yrotation
								JOINT lhand
								{
									OFFSET 0 0 0
CHANNELS 3 Zrotation Xrotation Yrotation
									JOINT LFingers
									{
OFFSET 0 -0.706180 -0.000000
CHANNELS 3 Zrotation Xrotation Yrotation
										End Site
										{
OFFSET 0 -0.569340 -0.000000
										}
									}
								}
								JOINT LThumb
								{
OFFSET 0 0.000000 0.000000
CHANNELS 3 Zrotation Xrotation Yrotation
									End Site
									{
OFFSET 0 -0.578030 0.578030
									}
								}
							}
						}
					}
				}
				JOINT RightCollar
				{
					OFFSET 0 0 0
					CHANNELS 3 Zrotation Yrotation Xrotation
					JOINT RightShoulder
					{
						OFFSET -2.99471 1.26495 -0.61125
CHANNELS 3 Zrotation Xrotation Yrotation
						JOINT RightElbow
						{
OFFSET 0 -5.287210 -0.000000
CHANNELS 3 Zrotation Xrotation Yrotation
							JOINT RightWrist
							{
OFFSET 0 -3.505440 0.000000
CHANNELS 3 Zrotation Xrotation Yrotation
								JOINT rhand
								{
									OFFSET 0 0 0
CHANNELS 3 Zrotation Xrotation Yrotation
									JOINT RFingers
									{
OFFSET 0 -0.885000 -0.000000
CHANNELS 3 Zrotation Xrotation Yrotation
										End Site
										{
OFFSET 0 -0.713510 -0.000000
										}
									}
								}
								JOINT RThumb
								{
OFFSET 0 0.000000 0.000000
CHANNELS 3 Zrotation Xrotation Yrotation
									End Site
									{
OFFSET 0 -0.724400 0.724400
									}
								}
							}
						}
					}
				}
			}
		}
	}
}
MOTION
Frames: 10
Frame Time: 0.008333333333333333
23.592098 16.022755 0.554142 -5.947409 -33.365331 7.475576 0.000000 0.000000 0.000000 0.460702 -1.934112 -41.571096 11.418925 18.134061 64.134798 1.708921 -14.749617 -24.127613 1.171995 -6.871256 -19.334717 0.000000 0.000000 0.000000 5.676505 3.368466 -37.713643 -14.901114 -19.364882 74.938604 -1.185682 -3.785433 -22.264266 -0.026008 0.875815 -2.408294 -8.634463 2.908563 27.612550 -1.760980 1.008325 9.434114 2.701435 0.271902 -4.764337 -18.575954 -14.157054 -4.142720 28.972988 -16.688201 -19.224522 11.541531 -8.928944 -0.308247 0.000000 0.000000 0.000000 9.335405 -1.286125 -37.770619 58.200625 -55.809557 32.848565 14.155485 16.396901 -29.764469 0.000000 0.000000 0.000000 -7.125000 0.000000 0.000000 -19.395050 59.449372 7.006728 0.000000 0.000000 0.000000 -2.939484 -3.763883 10.300842 -21.977636 -32.951433 -6.573830 -17.069456 -5.587322 -16.967362 0.000000 0.000000 0.000000 7.125000 0.000000 0.000000 7.155872 12.383097 5.500844
23.576719 16.018483 0.514941 -5.745536 -33.124549 7.154101 0.000000 0.000000 0.000000 0.397354 -1.967663 -41.451034 11.379851 18.116010 64.009154 1.682815 -14.983021 -24.012200 1.163872 -6.848192 -19.266621 0.000000 0.000000 0.000000 5.521690 2.922039 -37.088172 -14.951114 -19.377487 75.089253 -1.090448 -4.957641 -22.107108 -0.070990 1.697551 -4.671110 -8.717997 2.911771 27.620082 -1.734202 0.993495 9.385894 2.782561 0.268657 -4.820471 -18.558274 -14.395327 -4.580245 28.747781 -17.040997 -18.652646 11.330175 -9.042922 -0.032181 0.000000 0.000000 0.000000 9.154980 -1.489809 -37.732964 57.351914 -55.560950 32.147377 14.222748 16.490452 -29.542405 0.000000 0.000000 0.000000 -7.125000 0.000000 0.000000 -19.161749 59.256017 6.828378 0.000000 0.000000 0.000000 -3.012658 -3.598289 10.686374 -22.203384 -33.205984 -6.696976 -17.295608 -5.394113 -14.615590 0.000000 0.000000 0.000000 7.125000 0.000000 0.000000 6.944544 14.784006 4.981289
23.558126 16.018103 0.477954 -5.576077 -32.903013 6.859939 0.000000 0.000000 0.000000 0.360302 -1.955872 -41.324279 11.342943 18.098886 63.890359 1.665877 -15.199190 -23.953258 1.179734 -6.893016 -19.399131 0.000000 0.000000 0.000000 5.367882 2.568168 -36.339978 -14.998092 -19.389204 75.230803 -1.067827 -5.545088 -22.263398 -0.083518 1.812504 -4.989118 -8.939916 2.898318 27.670721 -1.589856 0.924345 9.280285 3.088607 0.241650 -4.956171 -18.832342 -14.540496 -4.979927 28.590217 -17.260362 -18.072947 11.215144 -9.078284 0.246779 0.000000 0.000000 0.000000 8.631159 -1.540682 -37.359344 56.639954 -55.345434 31.560869 14.373198 16.843832 -29.636243 0.000000 0.000000 0.000000 -7.125000 0.000000 0.000000 -19.071336 59.378668 6.851054 0.000000 0.000000 0.000000 -3.289635 -3.450322 11.004546 -22.271533 -33.282317 -6.734334 -16.991080 -5.014909 -13.072253 0.000000 0.000000 0.000000 7.125000 0.000000 0.000000 7.118902 16.406914 4.870775
23.534603 16.016123 0.440740 -5.348191 -32.698330 6.624188 0.000000 0.000000 0.000000 0.301276 -1.973926 -41.305150 11.329457 18.092535 63.846807 1.632178 -15.556841 -23.823657 1.111934 -6.697674 -18.823387 0.000000 0.000000 0.000000 5.070731 2.376297 -35.459050 -15.074181 -19.408014 75.459900 -1.187861 -5.189061 -23.062215 -0.024962 1.010646 -2.778183 -9.305115 2.881979 27.626832 -1.451276 0.824026 9.132053 3.480598 0.200947 -5.089412 -18.980871 -14.487713 -5.110224 28.395760 -17.203788 -17.785868 11.159241 -9.009498 0.321303 0.000000 0.000000 0.000000 8.123559 -1.436287 -36.944648 56.062676 -55.165750 31.086502 14.425782 17.162099 -29.758442 0.000000 0.000000 0.000000 -7.125000 0.000000 0.000000 -19.104490 59.505815 6.921886 0.000000 0.000000 0.000000 -3.536769 -3.537211 11.181542 -22.048653 -33.031795 -6.612424 -15.707885 -5.157088 -15.460617 0.000000 0.000000 0.000000 7.125000 0.000000 0.000000 8.026692 14.061372 5.895370
23.512185 16.000448 0.392054 -5.255378 -32.413126 6.492845 0.000000 0.000000 0.000000 0.439829 -2.012704 -41.381705 11.346266 18.100390 63.900975 1.579548 -16.052204 -23.614226 1.004816 -6.378443 -17.886394 0.000000 0.000000 0.000000 4.953407 2.226617 -34.661013 -15.149192 -19.426283 75.685782 -1.297578 -4.990286 -23.841982 -0.013028 0.726590 -1.996833 -9.331211 2.820422 27.562807 -1.473007 0.746330 9.047010 3.495809 0.171070 -5.144577 -18.996497 -14.400943 -4.849216 28.692755 -17.080842 -18.003861 11.313574 -8.984598 0.236729 0.000000 0.000000 0.000000 8.125361 -1.449641 -36.781410 55.551786 -55.002942 30.667578 14.045770 17.168354 -29.717569 0.000000 0.000000 0.000000 -7.125000 0.000000 0.000000 -19.474853 59.380432 7.003619 0.000000 0.000000 0.000000 -3.365524 -3.801471 11.262929 -21.863895 -32.822910 -6.511989 -15.615292 -4.983888 -15.965603 0.000000 0.000000 0.000000 7.125000 0.000000 0.000000 8.097517 13.554384 6.036013
23.492893 15.974215 0.332555 -5.907795 -32.054598 6.568211 0.000000 0.000000 0.000000 1.337635 -1.874594 -41.323017 11.366369 18.109766 63.965703 1.540603 -16.441382 -23.471698 1.028886 -6.452186 -18.102304 0.000000 0.000000 0.000000 5.714275 2.139532 -33.786105 -15.201479 -19.438724 75.842734 -1.289284 -5.785772 -24.248289 -0.034123 1.188610 -3.267952 -8.508680 2.700072 27.701098 -1.457230 0.797625 9.091634 3.029011 0.202352 -5.172794 -19.152096 -14.508042 -4.495286 29.481389 -17.211740 -18.332008 11.618102 -9.116398 0.249891 0.000000 0.000000 0.000000 8.399508 -1.783828 -36.872101 54.897205 -54.789196 30.131995 13.732408 17.345499 -29.548717 0.000000 0.000000 0.000000 -7.125000 0.000000 0.000000 -19.680576 59.150639 6.972157 0.000000 0.000000 0.000000 -3.059374 -3.875665 11.350735 -22.009939 -32.988246 -6.591231 -15.675512 -5.120285 -15.930715 0.000000 0.000000 0.000000 7.125000 0.000000 0.000000 8.056499 13.584314 5.999682
23.468098 15.963371 0.275119 -6.410614 -31.841371 6.540920 0.000000 0.000000 0.000000 2.052053 -1.696333 -41.264759 11.352512 18.103322 63.921069 1.484979 -16.800813 -23.222044 1.061725 -6.551120 -18.392154 0.000000 0.000000 0.000000 6.322534 1.918151 -32.923148 -15.210778 -19.440934 75.870806 -1.194068 -6.811503 -24.149398 -0.034756 1.204240 -3.310808 -7.932988 2.658390 27.744814 -1.388321 0.899045 9.142535 2.745687 0.252979 -5.150542 -19.346299 -14.620041 -4.086503 30.035135 -17.363444 -18.669612 11.855223 -9.248972 0.226942 0.000000 0.000000 0.000000 8.545894 -2.086032 -36.942760 54.244859 -54.569947 29.599766 13.551707 17.689095 -29.339457 0.000000 0.000000 0.000000 -7.125000 0.000000 0.000000 -19.718472 58.913624 6.873460 0.000000 0.000000 0.000000 -2.988283 -3.813672 11.699050 -22.237402 -33.244115 -6.715611 -15.786974 -5.665244 -15.616145 0.000000 0.000000 0.000000 7.125000 0.000000 0.000000 7.976103 13.895216 5.885801
23.442352 15.962866 0.218012 -5.242036 -31.530371 6.340711 0.000000 0.000000 0.000000 1.106225 -2.169900 -41.977611 11.258595 18.059264 63.618461 1.362695 -17.035322 -22.511037 0.963063 -6.245673 -17.499765 0.000000 0.000000 0.000000 5.113621 1.285865 -32.877916 -15.200557 -19.438536 75.840095 -1.121657 -7.301896 -23.895425 -0.016201 0.789170 -2.168961 -8.742227 2.620907 27.121026 -1.617913 0.698619 9.021465 3.018470 0.154346 -4.958667 -19.536895 -14.697869 -3.863014 30.306696 -17.471549 -18.848494 11.983105 -9.326543 0.226069 0.000000 0.000000 0.000000 8.630581 -2.235191 -36.863466 53.719830 -54.389484 29.172450 13.404167 17.844059 -29.034218 0.000000 0.000000 0.000000 -7.125000 0.000000 0.000000 -19.655575 58.594345 6.698723 0.000000 0.000000 0.000000 -2.945352 -3.907142 12.098456 -22.339630 -33.358671 -6.771689 -16.051503 -6.438470 -16.902269 0.000000 0.000000 0.000000 7.125000 0.000000 0.000000 7.829926 12.554557 5.996535
23.425293 15.949083 0.157566 -5.209827 -31.358065 6.258424 0.000000 0.000000 0.000000 1.271218 -2.091651 -42.128842 11.189338 18.026513 63.394904 1.322195 -17.230648 -22.313755 1.018582 -6.417399 -18.001522 0.000000 0.000000 0.000000 5.104255 1.202159 -32.172245 -15.141062 -19.424246 75.661255 -1.071854 -8.024791 -24.015329 -0.003573 0.258655 -0.710771 -8.608605 2.552146 27.117361 -1.640378 0.643293 8.958797 2.935138 0.135083 -5.023241 -19.431150 -14.857241 -4.224183 30.089289 -17.702399 -18.460878 11.795869 -9.395632 0.402502 0.000000 0.000000 0.000000 8.647185 -2.289437 -36.783968 53.214920 -54.212106 28.762441 13.932672 18.248972 -28.744468 0.000000 0.000000 0.000000 -7.125000 0.000000 0.000000 -18.905086 58.437998 6.360131 0.000000 0.000000 0.000000 -2.954484 -3.949211 12.384452 -22.399835 -33.425908 -6.804773 -16.045722 -6.544440 -17.644568 0.000000 0.000000 0.000000 7.125000 0.000000 0.000000 7.852654 11.797320 6.140923
23.408532 15.946922 0.102506 -5.678625 -31.268291 6.166840 0.000000 0.000000 0.000000 1.896359 -1.869723 -41.796670 11.099689 17.983408 63.104804 1.287254 -17.515134 -22.182309 1.036315 -6.474124 -18.166627 0.000000 0.000000 0.000000 5.619400 1.096521 -31.098623 -15.005162 -19.390766 75.252089 -1.009894 -8.797444 -24.096025 -0.000100 0.054066 -0.148512 -8.030948 2.518419 27.426474 -1.559230 0.720291 8.912233 2.669732 0.184282 -5.236423 -19.130040 -15.071066 -4.854123 29.584505 -18.022630 -17.754218 11.428917 -9.475193 0.667176 0.000000 0.000000 0.000000 8.603957 -2.233664 -36.843557 52.862017 -54.086403 28.476309 14.869038 18.728529 -28.565621 0.000000 0.000000 0.000000 -7.125000 0.000000 0.000000 -17.806030 58.475614 5.989353 0.000000 0.000000 0.000000 -3.043385 -3.853164 12.691938 -22.480277 -33.515505 -6.849149 -16.060505 -6.483978 -17.332596 0.000000 0.000000 0.000000 7.125000 0.000000 0.000000 7.833925 12.114479 6.074118
